<?xml version="1.0" standalone="no"?>
<!DOCTYPE svg PUBLIC "-//W3C//DTD SVG 20010904//EN"
 "http://www.w3.org/TR/2001/REC-SVG-20010904/DTD/svg10.dtd">
<svg version="1.0" xmlns="http://www.w3.org/2000/svg"
 width="243.000000pt" height="217.000000pt" viewBox="0 0 243.000000 217.000000"
 preserveAspectRatio="xMidYMid meet">

<g transform="translate(0.000000,217.000000) scale(0.100000,-0.100000)"
fill="#000000" stroke="none">
<path d="M1654 2161 c-139 -22 -272 -89 -371 -187 l-72 -70 -68 66 c-79 77
-147 118 -258 156 -71 24 -95 28 -205 28 -109 0 -135 -4 -205 -27 -199 -66
-352 -209 -424 -397 -74 -191 -62 -383 37 -575 32 -63 88 -123 576 -612 l541
-543 537 530 c547 541 583 580 635 705 80 189 61 430 -48 611 -52 85 -180 202
-269 246 -127 62 -282 88 -406 69z"/>
</g>
</svg>
