<svg id="Layer_1" data-name="Layer 1" xmlns="http://www.w3.org/2000/svg" viewBox="0 0 54.33 65.02"><path id="Path_7582" data-name="Path 7582" d="M166,127.58h-9.32V124.2a15,15,0,0,0-30,0v3.38h-9.32a2.86,2.86,0,0,0-2.86,2.86v34.95a8.85,8.85,0,0,0,8.85,8.85H160a8.87,8.87,0,0,0,8.86-8.85V130.44A2.86,2.86,0,0,0,166,127.58Zm-36.71-3.38a12.4,12.4,0,0,1,24.79,0v3.38H129.34Zm37,41.19a6.28,6.28,0,0,1-6.27,6.27H123.43a6.28,6.28,0,0,1-6.28-6.27V130.44a.26.26,0,0,1,.26-.26h9.32v5.51a3.25,3.25,0,1,0,2.6,0v-5.52h24.79v5.52a3.24,3.24,0,1,0,4.26,1.67,3.21,3.21,0,0,0-1.67-1.67v-5.52H166a.26.26,0,0,1,.26.26Z" transform="translate(-114.57 -109.22)"/></svg>