<svg xmlns="http://www.w3.org/2000/svg" width="17.35" height="20" viewBox="0 0 17.35 20">
    <g id="calendar" transform="translate(-3 -1.25)">
        <path id="Path_27826"  d="M16.253,3.56V2a.723.723,0,1,0-1.446,0V3.5H8.543V2A.723.723,0,1,0,7.1,2V3.56A4.177,4.177,0,0,0,3.04,7.81a.5.5,0,0,0,.482.53H19.828a.489.489,0,0,0,.482-.53,4.177,4.177,0,0,0-4.057-4.25Z" transform="translate(0)"/>
        <path id="Path_27827" data-name="Path 27827" d="M19.386,9.84H3.964a.985.985,0,0,0-.964,1V17c0,3,1.446,5,4.819,5H15.53c3.374,0,4.819-2,4.819-5V10.84A.985.985,0,0,0,19.386,9.84Zm-10.4,8.37a1.53,1.53,0,0,1-.145.12.72.72,0,0,1-.173.09.6.6,0,0,1-.173.06,1.261,1.261,0,0,1-.193.02.93.93,0,0,1-.366-.08.991.991,0,0,1-.318-.21,1.041,1.041,0,0,1,0-1.42.991.991,0,0,1,.318-.21.891.891,0,0,1,.559-.06.6.6,0,0,1,.173.06.72.72,0,0,1,.173.09l.145.12a1.041,1.041,0,0,1,0,1.42Zm0-3.5a.952.952,0,0,1-1.369,0,1.041,1.041,0,0,1,0-1.42.937.937,0,0,1,1.051-.21.9.9,0,0,1,.318.21,1.041,1.041,0,0,1,0,1.42Zm3.374,3.5a.952.952,0,0,1-1.369,0,1.041,1.041,0,0,1,0-1.42.983.983,0,0,1,1.369,0,1.041,1.041,0,0,1,0,1.42Zm0-3.5-.145.12a.72.72,0,0,1-.173.09.6.6,0,0,1-.173.06,1.261,1.261,0,0,1-.193.02,1,1,0,0,1-.684-.29,1.041,1.041,0,0,1,0-1.42.9.9,0,0,1,.318-.21.937.937,0,0,1,1.051.21,1.041,1.041,0,0,1,0,1.42Zm3.374,3.5a.952.952,0,0,1-1.369,0,1.041,1.041,0,0,1,0-1.42.983.983,0,0,1,1.369,0,1.041,1.041,0,0,1,0,1.42Zm0-3.5-.145.12a.72.72,0,0,1-.173.09.6.6,0,0,1-.173.06,1.4,1.4,0,0,1-.193.02,1,1,0,0,1-.684-.29,1.041,1.041,0,0,1,0-1.42.991.991,0,0,1,.318-.21.891.891,0,0,1,.559-.06.6.6,0,0,1,.173.06.72.72,0,0,1,.173.09l.145.12a1.041,1.041,0,0,1,0,1.42Z" transform="translate(0 -0.75)"/>
    </g>
</svg>
