<svg xmlns="http://www.w3.org/2000/svg" width="60" height="14.678" viewBox="0 0 60 14.678">
    <g id="Group_3280"  transform="translate(-56.415 -116.364)">
        <path id="Path_1" data-name="Path 1" d="M74.968,128.545v-.307a4.761,4.761,0,0,0-.319-1.453A20.633,20.633,0,0,0,73.2,124.3c-.937-1.564-1.99-3.37-2.933-4.945-.776-1.3-1.5-2.964-3.426-2.99-2-.026-2.67,1.676-3.4,2.906-2.309,3.9-7.026,11.761-7.026,11.761h2.178s4.5-7.665,6.736-11.538a2.049,2.049,0,0,1,1.51-1.145c1,0,1.5,1.143,1.945,1.927,1.2,2.1,2.358,4.115,3.484,6.146.354.639,1.073,1.479.581,2.347-.321.566-.968.531-1.887.531,0,.015-8.884,0-8.884,0v1.732h8.071a19.708,19.708,0,0,0,2.671-.084A2.623,2.623,0,0,0,74.968,128.545Z" transform="translate(0 0)"/>
        <path id="Path_2" data-name="Path 2" d="M99.743,118.862v.308a4.76,4.76,0,0,0,.319,1.453,20.637,20.637,0,0,0,1.452,2.486c.937,1.563,1.99,3.37,2.932,4.945.776,1.3,1.5,2.963,3.426,2.989,2,.027,2.67-1.676,3.4-2.905,2.309-3.9,7.026-11.761,7.026-11.761h-2.178s-4.5,7.664-6.736,11.538a2.048,2.048,0,0,1-1.51,1.145c-1,0-1.5-1.143-1.945-1.928-1.2-2.1-2.358-4.115-3.484-6.146-.354-.639-1.073-1.479-.581-2.347.321-.566.968-.531,1.887-.531,0-.014,8.884,0,8.884,0v-1.732h-8.071a19.743,19.743,0,0,0-2.671.083A2.624,2.624,0,0,0,99.743,118.862Z" transform="translate(-28.043 0)"/>
        <path id="Path_3" data-name="Path 3" d="M149.129,128.545v-.307a4.76,4.76,0,0,0-.319-1.453,20.63,20.63,0,0,0-1.452-2.486c-.937-1.564-1.99-3.37-2.932-4.945-.776-1.3-1.5-2.964-3.426-2.99-2-.026-2.67,1.676-3.4,2.906-2.309,3.9-7.026,11.761-7.026,11.761h2.178s4.5-7.665,6.736-11.538a2.049,2.049,0,0,1,1.51-1.145c1,0,1.5,1.143,1.945,1.927,1.2,2.1,2.358,4.115,3.484,6.146.355.639,1.073,1.479.581,2.347-.321.566-.968.531-1.887.531,0,.015-8.884,0-8.884,0v1.732h8.072a19.7,19.7,0,0,0,2.671-.084A2.623,2.623,0,0,0,149.129,128.545Z" transform="translate(-47.999 0)"/>
        <path id="Path_4" data-name="Path 4" d="M173.9,118.862v.308a4.76,4.76,0,0,0,.319,1.453,20.689,20.689,0,0,0,1.452,2.486c.937,1.563,1.99,3.37,2.933,4.945.776,1.3,1.5,2.963,3.426,2.989,2,.027,2.67-1.676,3.4-2.905,2.309-3.9,7.026-11.761,7.026-11.761h-2.178s-4.5,7.664-6.736,11.538a2.049,2.049,0,0,1-1.51,1.145c-1,0-1.5-1.143-1.945-1.928-1.2-2.1-2.358-4.115-3.484-6.146-.354-.639-1.073-1.479-.581-2.347.321-.566.968-.531,1.887-.531,0-.014,8.884,0,8.884,0v-1.732h-8.071a19.743,19.743,0,0,0-2.671.083A2.624,2.624,0,0,0,173.9,118.862Z" transform="translate(-76.042 0)"/>
    </g>
</svg>
