<svg id="Layer_1" data-name="Layer 1" xmlns="http://www.w3.org/2000/svg" viewBox="0 0 74.08 63.97"><path d="M154.67,119h0a1.9,1.9,0,0,0-1.9,1.9v6.88h-45.9a1.9,1.9,0,1,0,0,3.79h45.9v6.88a1.9,1.9,0,0,0,1.9,1.9h0a1.9,1.9,0,0,0,1.9-1.9V120.93A1.9,1.9,0,0,0,154.67,119Z" transform="translate(-104.97 -119.03)"/><rect x="62.29" y="8.78" width="11.78" height="3.8" rx="1.9"/><rect x="41.09" y="51.4" width="32.99" height="3.8" rx="1.9"/><path d="M137.55,161.65a1.9,1.9,0,0,0-1.9,1.9v6.87H106.87a1.9,1.9,0,0,0,0,3.8h28.78v6.88a1.9,1.9,0,1,0,3.8,0V163.55A1.9,1.9,0,0,0,137.55,161.65Z" transform="translate(-104.97 -119.03)"/><rect x="22.88" y="30.09" width="51.2" height="3.8" rx="1.9"/><path d="M116.46,140.34a1.9,1.9,0,0,0-1.9,1.9v6.87h-7.69a1.9,1.9,0,0,0,0,3.8h7.69v6.88a1.9,1.9,0,0,0,3.8,0V142.24A1.9,1.9,0,0,0,116.46,140.34Z" transform="translate(-104.97 -119.03)"/></svg>