<svg id="Group_7460" data-name="Group 7460" xmlns="http://www.w3.org/2000/svg" xmlns:xlink="http://www.w3.org/1999/xlink" width="100.508" height="100" viewBox="0 0 100.508 100">
    <defs>
        <clipPath id="clip-path">
            <rect id="Rectangle_3048"  width="100.508" height="100" fill="none"/>
        </clipPath>
    </defs>
    <g id="Group_7459" data-name="Group 7459" clip-path="url(#clip-path)">
        <path id="Path_36544" data-name="Path 36544" d="M0,110.616a12.741,12.741,0,0,0,12.741,12.741H49.623V72.876H0Z" transform="translate(0 -23.357)"/>
        <path id="Path_36545" data-name="Path 36545" d="M74.266,123.357h36.882a12.741,12.741,0,0,0,12.741-12.741V72.876H74.266Zm15.15-25.977h9.06V88.32h2.265v9.06h9.06v2.265h-9.06V108.7H98.476v-9.06h-9.06Z" transform="translate(-23.802 -23.357)"/>
        <path id="Path_36546" data-name="Path 36546" d="M43.123,25.8a3.089,3.089,0,0,1,.157-.319L49.3,14.831a.4.4,0,0,1,.173-.173.708.708,0,0,1,.239-.033h.769V29.958h-.976V16.89a5.75,5.75,0,0,1,.033-.593L43.507,27.009a.49.49,0,0,1-.075.118l0,0a.461.461,0,0,1-.1.083.472.472,0,0,1-.261.08h-.1v5.034A12.32,12.32,0,0,0,55.342,44.583H99.219a2.242,2.242,0,0,0,2.251-2.224V36.41l-7.875-5.742V13.989l7.317-5.346A12.331,12.331,0,0,0,89.1,0H45.228a2.242,2.242,0,0,0-2.251,2.223v23.9c0,.008.01.015.01.024q.064-.173.136-.34M59.9,35.066H57.377v1.939h2.1v.282h-2.1v2H59.9v.288H57.028v-4.8H59.9Zm5.364,0H62.741v1.939h2.1v.282h-2.1v2h2.526v.288H62.392v-4.8h2.875Zm5.622.007H69.2v4.5h-.347v-4.5h-1.7v-.3h3.726ZM95.269,39.7a.6.6,0,0,1,.474-.559,4.248,4.248,0,0,1,.6-.02h1.8v.4s-1.981,0-1.981,0c-.205,0-.349-.008-.421.123-.11.2.05.4.129.544.251.476.509.94.777,1.427.1.181.211.446.434.446.149,0,.276-.15.34-.265.5-.9,1.5-2.675,1.5-2.675H99.4s-1.053,1.822-1.567,2.727c-.162.285-.311.68-.758.673-.43-.006-.591-.391-.764-.692-.21-.365-.445-.784-.654-1.146a4.852,4.852,0,0,1-.323-.577,1.162,1.162,0,0,1-.068-.34Zm-1.083-.582c.43.006.591.392.764.693.21.365.445.783.654,1.146a4.944,4.944,0,0,1,.324.576,1.161,1.161,0,0,1,.068.34v.071a.6.6,0,0,1-.474.555,4.254,4.254,0,0,1-.6.02h-1.8v-.4h1.981c.205,0,.349.007.421-.124.11-.2-.05-.4-.129-.544-.251-.476-.509-.94-.777-1.427-.1-.182-.211-.447-.434-.447-.149,0-.276.15-.34.266-.5.9-1.5,2.675-1.5,2.675h-.486s1.053-1.821,1.567-2.726c.162-.285.311-.679.758-.673m-4.753.582a.6.6,0,0,1,.478-.559,4.254,4.254,0,0,1,.6-.02h1.8v.4s-1.981,0-1.981,0c-.205,0-.349-.008-.421.123-.11.2.05.4.129.544.251.476.509.94.777,1.427.1.181.211.446.434.446.149,0,.276-.15.34-.265.5-.9,1.5-2.675,1.5-2.675h.486S92.519,40.941,92,41.846c-.163.285-.311.68-.758.673-.429-.006-.59-.391-.764-.692-.211-.365-.445-.784-.654-1.146A4.8,4.8,0,0,1,89.5,40.1a1.14,1.14,0,0,1-.071-.34Zm-1.842.091c.162-.285.311-.679.758-.673.429.006.59.392.764.693.211.365.446.783.654,1.146a4.794,4.794,0,0,1,.324.576,1.119,1.119,0,0,1,.071.34v.071a.6.6,0,0,1-.478.555,4.248,4.248,0,0,1-.6.02h-1.8v-.4h1.981c.205,0,.35.007.421-.124.11-.2-.05-.4-.129-.544-.251-.476-.509-.94-.777-1.427-.1-.182-.211-.447-.434-.447-.149,0-.276.15-.34.266-.5.9-1.5,2.675-1.5,2.675h-.486s1.053-1.821,1.568-2.726M52.243,29.945s4.742-8.207,7.062-12.284c.73-1.284,1.4-3.063,3.414-3.035,1.937.027,2.664,1.767,3.444,3.122.947,1.645,2.006,3.533,2.947,5.164.113.174.215.356.323.533a21.829,21.829,0,0,1,1.135,2.065,5.141,5.141,0,0,1,.305,1.4c0,.038.014.075.016.113v.321h0a2.7,2.7,0,0,1-2.159,2.509,19.044,19.044,0,0,1-2.685.088H57.933V28.137h0s8.929.015,8.929,0c.923,0,1.573.037,1.9-.554.494-.906-.228-1.783-.584-2.45-1.131-2.121-2.295-4.223-3.5-6.419-.451-.82-.951-2.013-1.955-2.013-.66,0-1.23.68-1.517,1.2-2.246,4.046-6.77,12.051-6.77,12.051H52.243ZM51.9,38.382c.014-.036.027-.072.042-.107a.911.911,0,0,1,.05-.1l1.885-3.333a.126.126,0,0,1,.054-.054.214.214,0,0,1,.075-.011h.241v4.8h-.306V35.487a1.816,1.816,0,0,1,.01-.186l-1.888,3.353a.148.148,0,0,1-.136.088h-.054a.154.154,0,0,1-.136-.088L49.8,35.3a1.881,1.881,0,0,1,.01.19v4.089h-.3v-4.8h.238a.222.222,0,0,1,.076.011.117.117,0,0,1,.056.054l1.936,3.336a1.377,1.377,0,0,1,.088.2" transform="translate(-13.773 0)"/>
        <path id="Path_36547" data-name="Path 36547" d="M136.015,2.675l-10.15,7.415-6.879,5.028V30.8l7.407,5.4,9.626,7.017c1.223.917,2.626,1.223,2.626-1.3V3.975c0-2.217-1.152-2.524-2.628-1.3" transform="translate(-38.135 -0.63)"/>
        <path id="Path_36548" data-name="Path 36548" d="M11.89,35.932H2.095l9.73-13.59a.763.763,0,0,0,.152-.444v-.379H.9l0,.925h9.6L.751,36.062a.67.67,0,0,0-.13.39v.4H11.89Z" transform="translate(-0.199 -6.897)"/>
        <rect id="Rectangle_3047" data-name="Rectangle 3047" width="1.116" height="15.331" transform="translate(15.525 14.626)"/>
        <path id="Path_36549" data-name="Path 36549" d="M32.7,23.788a6.015,6.015,0,0,0-.032-.606l6.2,10.726a.487.487,0,0,0,.433.282h.077V33.017a4.486,4.486,0,0,0-.272-.626L32.919,21.729a.381.381,0,0,0-.179-.173.742.742,0,0,0-.244-.033h-.761V36.854H32.7Z" transform="translate(-10.171 -6.898)"/>
    </g>
</svg>
