<svg id="Group_5861" data-name="Group 5861" xmlns="http://www.w3.org/2000/svg" xmlns:xlink="http://www.w3.org/1999/xlink" width="250" height="34.594" viewBox="0 0 250 34.594">
    <defs>
        <clipPath id="clip-path">
            <rect id="Rectangle_1266" width="250" height="34.594" fill="#be9f56"/>
        </clipPath>
    </defs>
    <g id="Group_5860" data-name="Group 5860" transform="translate(0 0)" clip-path="url(#clip-path)">
        <path id="Path_35708" data-name="Path 35708" d="M68.27,24.56A49.427,49.427,0,0,0,64.979,18.7c-2.124-3.683-4.516-7.941-6.652-11.653C56.57,3.988,54.928.062,50.559,0c-4.544-.064-6.056,3.948-7.7,6.847-5.233,9.2-15.932,27.719-15.932,27.719h4.937S42.066,16.5,47.134,7.374c.647-1.167,1.933-2.7,3.425-2.7,2.264,0,3.4,2.691,4.41,4.541,2.723,4.956,5.348,9.7,7.9,14.488.8,1.505,2.433,3.486,1.317,5.53-.73,1.333-2.2,1.25-4.28,1.25,0,.035-20.148,0-20.148,0v4.082h18.3a43.035,43.035,0,0,0,6.056-.2c2.892-.542,4.461-2.784,4.873-5.66v-.724a11.612,11.612,0,0,0-.724-3.425" transform="translate(58.932 0.002)" fill="#be9f56"/>
        <path id="Path_35709" data-name="Path 35709" d="M.635,2.079h21.66l-22,30.732a1.488,1.488,0,0,0-.293.88v.9H25.426V32.518H3.323L25.279,1.859a1.738,1.738,0,0,0,.341-1V0H.635Z" transform="translate(0 0)" fill="#be9f56"/>
        <rect id="Rectangle_1265" data-name="Rectangle 1265" width="2.519" height="34.594" transform="translate(34.081)" fill="#be9f56"/>
        <path id="Path_35710" data-name="Path 35710" d="M46.865.073a.876.876,0,0,0-.392.392L32.881,24.5a6.3,6.3,0,0,0-.354.721c-.108.252-.21.51-.306.769a9.8,9.8,0,0,0-.638-1.464L17.625.466a.849.849,0,0,0-.4-.392A1.713,1.713,0,0,0,16.671,0H14.959V34.594h2.178V5.109a13.589,13.589,0,0,0-.073-1.368l13.984,24.2a1.1,1.1,0,0,0,.976.635h.392a1.068,1.068,0,0,0,.979-.635L47.011,3.766a13.343,13.343,0,0,0-.073,1.343V34.594h2.2V0H47.4a1.61,1.61,0,0,0-.539.073" transform="translate(32.745 0)" fill="#be9f56"/>
        <path id="Path_35711" data-name="Path 35711" d="M69.148,0a1.623,1.623,0,0,0-.539.073.876.876,0,0,0-.392.392L54.625,24.5a6.3,6.3,0,0,0-.354.721c-.105.252-.207.51-.306.769a10.323,10.323,0,0,0-.635-1.467L39.369.466a1.143,1.143,0,0,0-.15-.2V4.452L52.791,27.945a1.1,1.1,0,0,0,.979.635h.389a1.065,1.065,0,0,0,.979-.635L68.755,3.766a13.4,13.4,0,0,0-.073,1.343V34.594h2.2V0Z" transform="translate(85.85 0)" fill="#be9f56"/>
        <path id="Path_35712" data-name="Path 35712" d="M72.507,0V2.079H54.295V16.063H69.452v2.028H54.295V32.515H72.507v2.079H51.775V0Z" transform="translate(113.335 0)" fill="#be9f56"/>
        <path id="Path_35713" data-name="Path 35713" d="M81.684,0V2.079H63.472V16.063H78.629v2.028H63.472V32.515H81.684v2.079H60.953V0Z" transform="translate(133.425 0)" fill="#be9f56"/>
        <path id="Path_35714" data-name="Path 35714" d="M96.837,0V2.127H84.687V34.594H82.193V2.127H69.97V0Z" transform="translate(153.163 0)" fill="#be9f56"/>
    </g>
</svg>
