<svg xmlns="http://www.w3.org/2000/svg" xmlns:xlink="http://www.w3.org/1999/xlink" width="58.08" height="28.346" viewBox="0 0 58.08 28.346">
    <defs>
        <clipPath id="clip-path">
            <rect id="Rectangle_1271"  width="58.08" height="28.346" transform="translate(0 0)" fill="#fff"/>
        </clipPath>
    </defs>
    <g id="Group_5867" data-name="Group 5867" transform="translate(0 0)">
        <g id="Group_5866" data-name="Group 5866" clip-path="url(#clip-path)">
            <path id="Path_35743" data-name="Path 35743" d="M33.882,20.125a40.3,40.3,0,0,0-2.7-4.8c-1.74-3.019-3.7-6.507-5.449-9.549C24.293,3.269,22.949.051,19.369,0c-3.723-.052-4.961,3.236-6.312,5.611C8.767,13.152,0,28.326,0,28.326H4.047s8.364-14.8,12.517-22.282c.53-.957,1.583-2.212,2.805-2.212,1.854,0,2.782,2.206,3.615,3.722,2.231,4.061,4.381,7.947,6.474,11.87.658,1.233,1.994,2.857,1.079,4.532-.6,1.092-1.8,1.025-3.507,1.025,0,.028-16.509,0-16.509,0v3.345h15a35.309,35.309,0,0,0,4.964-.162c2.369-.445,3.656-2.282,3.992-4.64v-.593a9.479,9.479,0,0,0-.593-2.806" fill="#fff"/>
            <path id="Path_35744" data-name="Path 35744" d="M56.658,0a1.3,1.3,0,0,0-.441.06A.731.731,0,0,0,55.9.381L44.758,20.073a5.4,5.4,0,0,0-.29.591c-.087.207-.17.417-.251.631a8.215,8.215,0,0,0-.52-1.2L32.258.381A1.186,1.186,0,0,0,32.134.22V3.648L43.256,22.9a.9.9,0,0,0,.8.52h.321a.873.873,0,0,0,.8-.52L56.337,3.085a10.763,10.763,0,0,0-.06,1.1V28.346h1.8V0Z" fill="#fff"/>
        </g>
    </g>
</svg>
